<?xml version="1.0" standalone="no"?>
<!DOCTYPE svg PUBLIC "-//W3C//DTD SVG 20010904//EN"
 "http://www.w3.org/TR/2001/REC-SVG-20010904/DTD/svg10.dtd">
<svg version="1.0" xmlns="http://www.w3.org/2000/svg"
 width="422.000000pt" height="422.000000pt" viewBox="0 0 422.000000 422.000000"
 preserveAspectRatio="xMidYMid meet">
<metadata>
Created by potrace 1.14, written by Peter Selinger 2001-2017
</metadata>
<g transform="translate(0.000000,422.000000) scale(0.100000,-0.100000)"
fill="#000000" stroke="none">
<path d="M2379 3936 c-2 -2 -21 -6 -41 -9 -75 -10 -157 -63 -193 -128 -38 -65
-39 -76 -43 -276 l-3 -203 -697 -1 c-383 0 -708 -2 -722 -5 -38 -6 -83 -26
-105 -45 -11 -10 -32 -28 -46 -41 -55 -48 -94 -165 -82 -244 7 -45 39 -113
111 -237 29 -49 52 -93 52 -98 0 -5 5 -9 10 -9 6 0 10 -5 10 -10 0 -6 11 -27
23 -48 13 -20 36 -58 50 -84 15 -27 39 -69 54 -95 14 -27 37 -65 50 -85 12
-21 23 -40 23 -43 0 -3 18 -34 39 -68 53 -84 100 -166 114 -199 6 -16 15 -28
19 -28 4 0 8 -5 8 -10 0 -6 26 -54 59 -108 32 -53 84 -144 117 -202 32 -58 61
-107 64 -110 3 -3 19 -31 35 -62 17 -32 33 -58 38 -58 4 0 7 -6 7 -14 0 -7 11
-30 25 -50 13 -20 21 -36 17 -36 -4 0 -2 -4 3 -8 6 -4 16 -18 24 -32 8 -14 37
-63 64 -110 52 -90 73 -126 115 -200 14 -25 32 -53 41 -64 9 -10 15 -21 14
-25 -1 -5 47 -93 77 -141 35 -54 100 -172 100 -180 0 -6 5 -10 10 -10 6 0 10
-7 10 -14 0 -23 80 -101 130 -127 37 -19 60 -23 125 -23 88 1 96 2 142 27 38
20 103 78 103 91 0 5 11 24 26 43 14 18 21 33 17 33 -4 0 -3 4 3 8 6 4 24 32
40 62 16 30 31 57 34 60 4 3 14 21 23 40 10 19 35 64 57 99 22 34 40 65 40 68
0 2 20 38 45 79 25 40 45 78 45 84 0 5 5 10 10 10 6 0 10 5 10 11 0 10 137
249 149 259 3 3 7 11 9 19 1 7 17 36 35 65 18 28 38 62 45 76 7 14 22 42 35
62 49 83 112 194 120 213 4 11 11 22 15 25 4 3 13 16 20 29 8 13 22 38 32 56
10 18 24 43 32 56 7 13 15 26 18 29 3 3 16 26 29 53 13 26 28 47 33 47 4 0 7
3 6 8 -3 6 17 43 53 102 5 8 21 38 35 65 15 28 29 52 33 55 8 6 29 40 38 60 3
8 33 60 65 116 32 55 58 106 58 112 0 7 4 12 8 12 5 0 16 15 25 33 9 17 30 55
46 82 17 28 49 87 72 133 38 74 42 90 41 150 -1 37 -5 76 -10 87 -5 11 -16 34
-23 50 -19 40 -87 113 -113 121 -12 4 -23 10 -26 13 -9 12 -146 91 -158 91 -7
0 -12 4 -12 9 0 5 -8 12 -17 15 -21 8 -70 35 -107 59 -13 9 -41 26 -60 37 -20
11 -52 29 -71 40 -39 22 -89 51 -126 72 -13 7 -26 15 -29 18 -3 3 -18 12 -35
20 -16 8 -32 17 -35 20 -10 10 -153 90 -161 90 -5 0 -9 5 -9 10 0 6 -7 10 -15
10 -8 0 -15 5 -15 11 0 5 -4 7 -10 4 -5 -3 -10 -1 -10 4 0 6 -4 11 -8 11 -4 0
-51 24 -104 53 -67 37 -109 54 -139 55 -23 2 -46 5 -49 7 -4 3 -9 3 -11 1z"/>
</g>
</svg>
